<svg width="300" height="300" viewBox="0 0 300 300" fill="none" xmlns="http://www.w3.org/2000/svg">
<g clip-path="url(#clip0_37_12)">
<rect width="300" height="300" rx="12" fill="#0A1A19"/>
<path d="M95.8 182.856C95.8 183.368 95.752 183.704 95.656 183.864C95.592 184.024 95.48 184.104 95.32 184.104C95 184.104 94.488 183.864 93.784 183.384C93.112 182.904 92.344 182.344 91.48 181.704C90.616 181.064 89.784 180.504 88.984 180.024C88.184 179.544 87.512 179.304 86.968 179.304C86.68 179.304 86.168 179.544 85.432 180.024C84.696 180.504 83.704 181.048 82.456 181.656C81.24 182.264 79.752 182.808 77.992 183.288C76.232 183.768 74.168 184.008 71.8 184.008C67.064 184.008 62.76 183.176 58.888 181.512C55.016 179.848 51.672 177.512 48.856 174.504C46.072 171.464 43.912 167.896 42.376 163.8C40.872 159.704 40.12 155.224 40.12 150.36C40.12 145.048 40.92 140.216 42.52 135.864C44.152 131.48 46.424 127.72 49.336 124.584C52.28 121.448 55.752 119.032 59.752 117.336C63.752 115.64 68.152 114.792 72.952 114.792C75.928 114.792 78.408 115.176 80.392 115.944C82.376 116.712 83.912 117.48 85 118.248C86.12 118.984 86.824 119.352 87.112 119.352C87.592 119.352 88.2 118.984 88.936 118.248C89.672 117.512 90.392 116.776 91.096 116.04C91.832 115.272 92.36 114.888 92.68 114.888C92.776 114.888 92.856 114.936 92.92 115.032C93.016 115.128 93.096 115.32 93.16 115.608L96.808 134.568C96.84 134.728 96.84 134.872 96.808 135C96.776 135.128 96.712 135.224 96.616 135.288C96.52 135.32 96.408 135.32 96.28 135.288C96.184 135.224 96.072 135.096 95.944 134.904C94.28 130.424 92.28 126.776 89.944 123.96C87.608 121.144 85.016 119.08 82.168 117.768C79.32 116.424 76.28 115.752 73.048 115.752C68.696 115.752 64.824 116.984 61.432 119.448C58.04 121.912 55.368 125.544 53.416 130.344C51.464 135.144 50.488 141.08 50.488 148.152C50.488 155.288 51.528 161.416 53.608 166.536C55.72 171.624 58.568 175.528 62.152 178.248C65.736 180.936 69.768 182.28 74.248 182.28C75.464 182.28 76.776 182.136 78.184 181.848C79.624 181.56 80.984 181.112 82.264 180.504C83.544 179.896 84.584 179.144 85.384 178.248C86.216 177.352 86.632 176.328 86.632 175.176V157.464C86.632 157.048 86.488 156.744 86.2 156.552C85.912 156.328 85.464 156.184 84.856 156.12L78.472 155.448C78.248 155.416 78.088 155.368 77.992 155.304C77.896 155.24 77.848 155.16 77.848 155.064C77.848 154.968 77.896 154.888 77.992 154.824C78.088 154.728 78.232 154.68 78.424 154.68H100.696C100.856 154.68 100.984 154.728 101.08 154.824C101.176 154.888 101.224 154.968 101.224 155.064C101.224 155.16 101.176 155.24 101.08 155.304C100.984 155.368 100.84 155.416 100.648 155.448L97.192 156.12C96.712 156.216 96.36 156.36 96.136 156.552C95.912 156.744 95.8 157.048 95.8 157.464V182.856ZM141.688 157.512C141.688 157.832 141.576 158.088 141.352 158.28C141.16 158.472 140.872 158.568 140.488 158.568H110.824V157.704H132.184C132.76 157.704 133.048 157.4 133.048 156.792C133.048 151.544 132.184 147.592 130.456 144.936C128.76 142.28 126.6 140.952 123.976 140.952C121.672 140.952 119.704 141.656 118.072 143.064C116.472 144.44 115.24 146.472 114.376 149.16C113.512 151.816 113.08 155.048 113.08 158.856C113.08 165.448 114.488 170.456 117.304 173.88C120.152 177.272 123.848 178.968 128.392 178.968C131.56 178.968 134.296 178.056 136.6 176.232C138.904 174.408 140.28 171.912 140.728 168.744C140.792 168.616 140.856 168.52 140.92 168.456C140.984 168.392 141.032 168.36 141.064 168.36C141.192 168.36 141.288 168.408 141.352 168.504C141.416 168.568 141.432 168.696 141.4 168.888C141.144 171.768 140.232 174.344 138.664 176.616C137.096 178.888 135.064 180.68 132.568 181.992C130.072 183.304 127.272 183.96 124.168 183.96C120.36 183.96 117.016 183.112 114.136 181.416C111.288 179.688 109.064 177.256 107.464 174.12C105.896 170.952 105.112 167.24 105.112 162.984C105.112 158.568 105.928 154.632 107.56 151.176C109.192 147.72 111.496 145.016 114.472 143.064C117.48 141.08 120.984 140.088 124.984 140.088C128.376 140.088 131.32 140.84 133.816 142.344C136.312 143.848 138.248 145.912 139.624 148.536C141 151.16 141.688 154.152 141.688 157.512ZM159.048 141V180.264C159.048 180.68 159.144 181.016 159.336 181.272C159.56 181.496 159.864 181.656 160.248 181.752L163.224 182.232C163.576 182.264 163.752 182.392 163.752 182.616C163.752 182.872 163.592 183 163.272 183H146.04C145.944 183 145.848 182.968 145.752 182.904C145.656 182.84 145.608 182.76 145.608 182.664C145.608 182.568 145.64 182.488 145.704 182.424C145.8 182.36 145.928 182.312 146.088 182.28L149.256 181.752C149.672 181.656 149.976 181.496 150.168 181.272C150.36 181.016 150.456 180.712 150.456 180.36V145.224C150.456 145.032 150.408 144.888 150.312 144.792C150.216 144.664 150.056 144.584 149.832 144.552H146.136C145.976 144.552 145.864 144.52 145.8 144.456C145.736 144.392 145.704 144.312 145.704 144.216C145.704 144.088 145.736 143.992 145.8 143.928C145.896 143.864 146.024 143.816 146.184 143.784L157.464 140.568C157.752 140.472 157.96 140.424 158.088 140.424C158.248 140.392 158.376 140.376 158.472 140.376C158.664 140.376 158.808 140.44 158.904 140.568C159 140.664 159.048 140.808 159.048 141ZM158.328 149.88L157.848 149.352L159.528 147.864C162.632 145.048 165.272 143.064 167.448 141.912C169.656 140.728 171.768 140.136 173.784 140.136C176.824 140.136 179.176 141.128 180.84 143.112C182.536 145.096 183.656 148.12 184.2 152.184L187.896 179.88C187.96 180.424 188.12 180.872 188.376 181.224C188.632 181.576 189.016 181.784 189.528 181.848L192.072 182.28C192.264 182.28 192.392 182.328 192.456 182.424C192.52 182.488 192.552 182.568 192.552 182.664C192.552 182.76 192.504 182.84 192.408 182.904C192.344 182.968 192.232 183 192.072 183H174.552C174.2 183 174.024 182.872 174.024 182.616C174.024 182.456 174.216 182.328 174.6 182.232L177.72 181.752C178.296 181.656 178.68 181.448 178.872 181.128C179.096 180.776 179.176 180.36 179.112 179.88L175.704 153.048C175.256 149.944 174.488 147.672 173.4 146.232C172.312 144.792 170.712 144.072 168.6 144.072C167.224 144.072 165.848 144.424 164.472 145.128C163.096 145.832 161.592 146.92 159.96 148.392L158.328 149.88ZM198.01 142.68L193.642 141.912C193.45 141.848 193.322 141.784 193.258 141.72C193.194 141.656 193.162 141.56 193.162 141.432C193.162 141.336 193.194 141.256 193.258 141.192C193.354 141.128 193.45 141.096 193.546 141.096H197.866C198.154 141.096 198.378 141.048 198.538 140.952C198.73 140.856 198.89 140.696 199.018 140.472L205.69 131.88C205.85 131.688 205.994 131.544 206.122 131.448C206.282 131.352 206.442 131.304 206.602 131.304C206.762 131.304 206.89 131.368 206.986 131.496C207.114 131.592 207.178 131.736 207.178 131.928V173.208C207.178 175.64 207.642 177.464 208.57 178.68C209.53 179.864 210.842 180.456 212.506 180.456C213.178 180.456 213.802 180.36 214.378 180.168C214.954 179.976 215.482 179.704 215.962 179.352C216.442 178.968 216.858 178.488 217.21 177.912C217.594 177.336 217.93 176.664 218.218 175.896C218.314 175.736 218.41 175.672 218.506 175.704C218.634 175.736 218.682 175.864 218.65 176.088C218.138 177.816 217.466 179.256 216.634 180.408C215.802 181.528 214.762 182.376 213.514 182.952C212.266 183.496 210.778 183.768 209.05 183.768C205.85 183.768 203.338 183 201.514 181.464C199.69 179.896 198.778 177.496 198.778 174.264V143.736C198.778 143.416 198.73 143.176 198.634 143.016C198.538 142.824 198.33 142.712 198.01 142.68ZM204.25 142.152L204.442 141.096H218.122C218.314 141.096 218.442 141.128 218.506 141.192C218.602 141.256 218.65 141.352 218.65 141.48C218.65 141.672 218.538 141.832 218.314 141.96C218.122 142.088 217.818 142.152 217.402 142.152H204.25ZM235.273 141V180.264C235.273 180.68 235.369 181.016 235.561 181.272C235.753 181.496 236.057 181.656 236.473 181.752L239.449 182.232C239.673 182.232 239.817 182.28 239.881 182.376C239.945 182.44 239.977 182.536 239.977 182.664C239.977 182.76 239.929 182.84 239.833 182.904C239.769 182.968 239.657 183 239.497 183H222.265C222.137 183 222.025 182.968 221.929 182.904C221.865 182.84 221.833 182.76 221.833 182.664C221.833 182.568 221.865 182.488 221.929 182.424C222.025 182.36 222.153 182.312 222.313 182.28L225.481 181.752C225.897 181.656 226.201 181.496 226.393 181.272C226.585 181.016 226.681 180.712 226.681 180.36V145.224C226.681 145.032 226.633 144.888 226.537 144.792C226.441 144.664 226.281 144.584 226.057 144.552H222.313C222.185 144.552 222.073 144.52 221.977 144.456C221.913 144.392 221.881 144.312 221.881 144.216C221.881 144.088 221.913 143.992 221.977 143.928C222.073 143.864 222.201 143.816 222.361 143.784L233.689 140.568C233.977 140.472 234.185 140.424 234.313 140.424C234.441 140.392 234.569 140.376 234.697 140.376C234.889 140.376 235.033 140.44 235.129 140.568C235.225 140.664 235.273 140.808 235.273 141ZM230.665 132.552C229.065 132.552 227.753 132.008 226.729 130.92C225.737 129.832 225.241 128.504 225.241 126.936C225.241 125.368 225.753 124.04 226.777 122.952C227.801 121.864 229.097 121.32 230.665 121.32C232.265 121.32 233.577 121.864 234.601 122.952C235.657 124.04 236.185 125.368 236.185 126.936C236.185 128.504 235.657 129.832 234.601 130.92C233.577 132.008 232.265 132.552 230.665 132.552ZM257.215 112.968V180.264C257.215 180.68 257.311 181.016 257.503 181.272C257.695 181.496 257.999 181.656 258.415 181.752L261.391 182.232C261.583 182.232 261.711 182.28 261.775 182.376C261.871 182.44 261.919 182.536 261.919 182.664C261.919 182.76 261.871 182.84 261.775 182.904C261.711 182.968 261.599 183 261.439 183H244.207C244.079 183 243.967 182.968 243.871 182.904C243.807 182.84 243.775 182.76 243.775 182.664C243.775 182.568 243.823 182.472 243.919 182.376C244.047 182.28 244.223 182.2 244.447 182.136L247.375 181.752C247.823 181.656 248.127 181.496 248.287 181.272C248.479 181.016 248.575 180.712 248.575 180.36V117.192C248.575 117 248.527 116.856 248.431 116.76C248.367 116.632 248.207 116.568 247.951 116.568H244.255C244.127 116.568 244.015 116.536 243.919 116.472C243.855 116.376 243.823 116.28 243.823 116.184C243.823 116.056 243.855 115.976 243.919 115.944C244.015 115.88 244.143 115.816 244.303 115.752L255.583 112.584C255.903 112.488 256.127 112.424 256.255 112.392C256.383 112.36 256.511 112.344 256.639 112.344C256.831 112.344 256.975 112.408 257.071 112.536C257.167 112.664 257.215 112.808 257.215 112.968Z" fill="white"/>
</g>
<defs>
<clipPath id="clip0_37_12">
<rect width="300" height="300" fill="white"/>
</clipPath>
</defs>
</svg>
