<svg width="1080" height="1080" viewBox="0 0 1080 1080" fill="none" xmlns="http://www.w3.org/2000/svg">
<g clip-path="url(#clip0_37_12)">
<rect width="1080" height="1080" rx="12" fill="#0A1A19"/>
<path d="M340.325 639.65C340.325 641.4 340.208 642.508 339.975 642.975C339.858 643.558 339.508 643.85 338.925 643.85C337.992 643.85 336.183 642.975 333.5 641.225C330.933 639.475 328.017 637.433 324.75 635.1C321.6 632.767 318.45 630.725 315.3 628.975C312.267 627.225 309.817 626.35 307.95 626.35C306.9 626.35 305.033 627.225 302.35 628.975C299.783 630.725 296.283 632.708 291.85 634.925C287.417 637.142 281.992 639.125 275.575 640.875C269.275 642.625 261.808 643.5 253.175 643.5C236.025 643.5 220.392 640.467 206.275 634.4C192.275 628.333 180.2 619.817 170.05 608.85C159.9 597.883 152.025 584.992 146.425 570.175C140.942 555.242 138.2 538.967 138.2 521.35C138.2 501.75 141.117 484.017 146.95 468.15C152.783 452.167 161.008 438.458 171.625 427.025C182.358 415.592 195.017 406.842 209.6 400.775C224.183 394.592 240.225 391.5 257.725 391.5C268.458 391.5 277.383 392.9 284.5 395.7C291.733 398.5 297.333 401.3 301.3 404.1C305.267 406.9 307.717 408.3 308.65 408.3C310.283 408.3 312.5 406.9 315.3 404.1C318.217 401.3 321.017 398.558 323.7 395.875C326.383 393.075 328.25 391.675 329.3 391.675C329.65 391.675 329.942 391.85 330.175 392.2C330.408 392.433 330.583 393.017 330.7 393.95L343.475 463.775C343.592 464.242 343.65 464.65 343.65 465C343.65 465.35 343.533 465.642 343.3 465.875C343.067 465.992 342.775 465.992 342.425 465.875C342.192 465.758 341.842 465.467 341.375 465C335.308 448.433 328.017 434.958 319.5 424.575C310.983 414.075 301.475 406.375 290.975 401.475C280.592 396.575 269.508 394.125 257.725 394.125C241.975 394.125 227.917 398.617 215.55 407.6C203.183 416.583 193.442 429.883 186.325 447.5C179.208 465.117 175.65 487.05 175.65 513.3C175.65 539.317 179.442 561.658 187.025 580.325C194.608 598.992 204.933 613.342 218 623.375C231.067 633.292 245.708 638.25 261.925 638.25C266.125 638.25 270.792 637.725 275.925 636.675C281.175 635.508 286.133 633.817 290.8 631.6C295.583 629.383 299.492 626.642 302.525 623.375C305.558 620.108 307.075 616.375 307.075 612.175V546.2C307.075 544.8 306.55 543.75 305.5 543.05C304.567 542.233 303.05 541.767 300.95 541.65L276.975 539.2C276.275 539.083 275.808 538.967 275.575 538.85C275.342 538.617 275.225 538.383 275.225 538.15C275.225 537.8 275.342 537.567 275.575 537.45C275.808 537.217 276.158 537.1 276.625 537.1H358.175C358.642 537.1 358.992 537.217 359.225 537.45C359.575 537.567 359.75 537.8 359.75 538.15C359.75 538.383 359.575 538.617 359.225 538.85C358.992 538.967 358.583 539.083 358 539.2L345.05 541.65C343.417 541.883 342.192 542.35 341.375 543.05C340.675 543.75 340.325 544.8 340.325 546.2V639.65ZM505.041 547.775C505.041 548.592 504.749 549.292 504.166 549.875C503.583 550.458 502.766 550.75 501.716 550.75H393.741V548.125H471.266C473.016 548.125 473.891 547.133 473.891 545.15C473.891 525.783 470.799 511.2 464.616 501.4C458.433 491.6 450.616 486.7 441.166 486.7C432.883 486.7 425.824 489.267 419.991 494.4C414.158 499.417 409.666 506.825 406.516 516.625C403.366 526.425 401.791 538.325 401.791 552.325C401.791 576.358 406.924 594.617 417.191 607.1C427.574 619.583 440.933 625.825 457.266 625.825C468.933 625.825 478.908 622.442 487.191 615.675C495.591 608.908 500.608 599.692 502.241 588.025C502.241 587.558 502.299 587.267 502.416 587.15C502.649 586.917 502.824 586.8 502.941 586.8C503.291 586.8 503.583 586.917 503.816 587.15C504.049 587.267 504.108 587.675 503.991 588.375C503.058 598.875 499.733 608.325 494.016 616.725C488.416 625.008 481.066 631.542 471.966 636.325C462.983 641.108 452.891 643.5 441.691 643.5C428.041 643.5 416.024 640.408 405.641 634.225C395.374 628.042 387.383 619.233 381.666 607.8C375.949 596.367 373.091 582.95 373.091 567.55C373.091 551.45 376.066 537.158 382.016 524.675C387.966 512.075 396.308 502.217 407.041 495.1C417.774 487.867 430.374 484.25 444.841 484.25C457.091 484.25 467.708 486.992 476.691 492.475C485.674 497.958 492.616 505.483 497.516 515.05C502.533 524.617 505.041 535.525 505.041 547.775ZM566.296 487.05V631.075C566.296 632.475 566.646 633.583 567.346 634.4C568.046 635.217 569.096 635.8 570.496 636.15L581.521 637.725C582.688 637.842 583.271 638.25 583.271 638.95C583.271 639.65 582.805 640 581.871 640H519.046C518.813 640 518.58 639.942 518.346 639.825C518.113 639.592 517.996 639.3 517.996 638.95C517.996 638.833 518.113 638.658 518.346 638.425C518.58 638.192 518.93 638.017 519.396 637.9L531.121 636.15C532.638 635.8 533.688 635.217 534.271 634.4C534.971 633.583 535.321 632.533 535.321 631.25V501.925C535.321 501.342 535.146 500.875 534.796 500.525C534.563 500.175 534.038 500 533.221 500H519.571C519.221 500 518.93 499.883 518.696 499.65C518.463 499.417 518.346 499.183 518.346 498.95C518.346 498.483 518.463 498.192 518.696 498.075C518.93 497.842 519.28 497.667 519.746 497.55L561.746 485.825C562.68 485.592 563.321 485.475 563.671 485.475C564.021 485.358 564.371 485.3 564.721 485.3C565.305 485.3 565.713 485.475 565.946 485.825C566.18 486.175 566.296 486.583 566.296 487.05ZM563.846 519.25L562.446 517.675L568.396 512.25C579.48 502.217 588.93 495.1 596.746 490.9C604.68 486.7 612.321 484.6 619.671 484.6C630.405 484.6 638.746 488.158 644.696 495.275C650.763 502.275 654.846 513.125 656.946 527.825L670.596 629.675C670.83 631.542 671.355 633.117 672.171 634.4C673.105 635.567 674.563 636.267 676.546 636.5L685.821 637.9C686.405 638.017 686.813 638.192 687.046 638.425C687.28 638.542 687.396 638.717 687.396 638.95C687.396 639.3 687.28 639.592 687.046 639.825C686.813 639.942 686.463 640 685.996 640H622.121C621.071 640 620.546 639.65 620.546 638.95C620.546 638.483 621.188 638.075 622.471 637.725L633.846 636.15C635.946 635.8 637.346 635.042 638.046 633.875C638.863 632.592 639.155 631.192 638.921 629.675L626.321 530.975C624.688 519.658 621.888 511.375 617.921 506.125C614.071 500.875 608.355 498.25 600.771 498.25C595.755 498.25 590.738 499.533 585.721 502.1C580.821 504.667 575.455 508.633 569.621 514L563.846 519.25ZM706.488 493.175L690.213 490.375C689.746 490.142 689.396 489.967 689.163 489.85C688.93 489.617 688.813 489.325 688.813 488.975C688.813 488.742 688.93 488.567 689.163 488.45C689.396 488.217 689.571 488.1 689.688 488.1H705.788C706.838 488.1 707.596 487.983 708.063 487.75C708.646 487.4 709.113 486.875 709.463 486.175L734.488 454.325C735.071 453.858 735.596 453.508 736.063 453.275C736.53 452.925 736.996 452.75 737.463 452.75C737.93 452.75 738.28 452.925 738.513 453.275C738.863 453.508 739.038 453.975 739.038 454.675V604.825C739.038 613.808 740.788 620.517 744.288 624.95C747.788 629.267 752.571 631.425 758.638 631.425C760.971 631.425 763.188 631.133 765.288 630.55C767.388 629.85 769.313 628.858 771.063 627.575C772.813 626.175 774.388 624.425 775.788 622.325C777.188 620.108 778.355 617.483 779.288 614.45C779.521 613.867 779.813 613.633 780.163 613.75C780.63 613.867 780.746 614.275 780.513 614.975C778.646 621.275 776.196 626.525 773.163 630.725C770.13 634.808 766.396 637.842 761.963 639.825C757.53 641.808 752.28 642.8 746.213 642.8C734.546 642.8 725.446 640 718.913 634.4C712.38 628.8 709.113 620.167 709.113 608.5V496.5C709.113 495.567 708.938 494.808 708.588 494.225C708.238 493.642 707.538 493.292 706.488 493.175ZM728.888 491.075L729.763 488.1H779.288C779.871 488.1 780.221 488.217 780.338 488.45C780.571 488.567 780.688 488.8 780.688 489.15C780.688 489.733 780.338 490.2 779.638 490.55C779.055 490.9 778.18 491.075 777.013 491.075H728.888ZM839.759 487.05V631.075C839.759 632.475 840.109 633.583 840.809 634.4C841.509 635.217 842.559 635.8 843.959 636.15L854.984 637.725C855.684 637.842 856.15 638.017 856.384 638.25C856.617 638.367 856.734 638.6 856.734 638.95C856.734 639.3 856.617 639.592 856.384 639.825C856.15 639.942 855.8 640 855.334 640H792.509C792.275 640 792.042 639.942 791.809 639.825C791.575 639.592 791.459 639.3 791.459 638.95C791.459 638.833 791.575 638.658 791.809 638.425C792.042 638.192 792.392 638.017 792.859 637.9L804.584 636.15C806.1 635.8 807.15 635.217 807.734 634.4C808.434 633.583 808.784 632.533 808.784 631.25V501.925C808.784 501.342 808.609 500.875 808.259 500.525C808.025 500.175 807.5 500 806.684 500H793.034C792.684 500 792.392 499.883 792.159 499.65C791.925 499.417 791.809 499.183 791.809 498.95C791.809 498.483 791.925 498.192 792.159 498.075C792.392 497.842 792.742 497.667 793.209 497.55L835.209 485.825C836.142 485.592 836.784 485.475 837.134 485.475C837.484 485.358 837.834 485.3 838.184 485.3C838.767 485.3 839.175 485.475 839.409 485.825C839.642 486.175 839.759 486.583 839.759 487.05ZM823.309 457.125C817.592 457.125 812.925 455.2 809.309 451.35C805.809 447.383 804.059 442.542 804.059 436.825C804.059 431.108 805.867 426.325 809.484 422.475C813.217 418.508 817.825 416.525 823.309 416.525C829.142 416.525 833.867 418.508 837.484 422.475C841.217 426.442 843.084 431.225 843.084 436.825C843.084 442.542 841.217 447.383 837.484 451.35C833.75 455.2 829.025 457.125 823.309 457.125ZM917.705 384.325V631.075C917.705 632.475 918.055 633.583 918.755 634.4C919.455 635.217 920.505 635.8 921.905 636.15L932.93 637.725C933.63 637.842 934.096 638.017 934.33 638.25C934.563 638.367 934.68 638.6 934.68 638.95C934.68 639.3 934.563 639.592 934.33 639.825C934.096 639.942 933.746 640 933.28 640H870.455C870.221 640 869.988 639.942 869.755 639.825C869.521 639.592 869.405 639.3 869.405 638.95C869.405 638.717 869.58 638.483 869.93 638.25C870.28 637.9 870.863 637.667 871.68 637.55L882.53 636.15C884.046 635.8 885.096 635.217 885.68 634.4C886.38 633.583 886.73 632.533 886.73 631.25V399.025C886.73 398.442 886.555 397.975 886.205 397.625C885.971 397.275 885.446 397.1 884.63 397.1H870.98C870.63 397.1 870.338 396.983 870.105 396.75C869.871 396.517 869.755 396.283 869.755 396.05C869.755 395.7 869.871 395.467 870.105 395.35C870.338 395.117 870.688 394.942 871.155 394.825L913.155 383.1C914.088 382.75 914.73 382.575 915.08 382.575C915.43 382.458 915.78 382.4 916.13 382.4C916.713 382.4 917.121 382.633 917.355 383.1C917.588 383.45 917.705 383.858 917.705 384.325Z" fill="white"/>
</g>
<defs>
<clipPath id="clip0_37_12">
<rect width="1080" height="1080" fill="white"/>
</clipPath>
</defs>
</svg>
